<svg class="diagram-root" style="background: #f5f6f6" xmlns="http://www.w3.org/2000/svg" xmlns:xlink="http://www.w3.org/1999/xlink"><style>.diagram-root { font-family: "Helvetica Neue", sans-serif; font-size: 12px; } .t { overflow: visible; } .t-bg { y: 40; fill: #fff;   } .th { fill: #005aa0;   } .tht { fill: #fff; font-size: 14px;  } .tf { fill: #323c46; overflow: visible; } .tf.pk { fill: #005aa0; font-weight: bold; } .tf.fk { font-weight: bold; } .ty { fill: #adb1b5; font-weight: normal; text-anchor: end; } .r { fill: transparent; stroke: #c3c3c3; stroke-width: 1; } .l { stroke: 1; } .i { fill: #c2c7ce; stroke: #c2c7ce; } .i.ix { fill: #afb3b6; stroke: #000; } .fa { fill: transparent; overflow: visible; } .fa .bg.hover { fill: #f7f7f7; } .c { cy: 12; r: 4; stroke: #d2d2dc; fill: #d2d2dc; } .hr { fill: transparent; stroke: #323c46; stroke-opacity: 0.035; stroke-width: 13; } .dc { stroke: #fa5a3c; fill: #fa5a3c; } .x { stroke: white; stroke-width: 1; } .hl .th { fill: #1b9bff; } .hl .tht {  } .fhl .bg { fill: #e7f4ff; } .fhls .bg {  } .r.hl { stroke: #1b9bff; } .dim { opacity: 0.25; }</style><g class="drawing-wrapper" transform="translate(2, 18) scale(1,1)"><g class="rs"><path d="M 528 88 m -1, 0 a 1,1 0 1,0 2,0 a 1,1 0 1,0 -2,0 M 528 88 m -0.5, 0 a 0.5,0.5 0 1,0 1,0 a 0.5,0.5 0 1,0 -1,0  M528 88 L528 88 516 88 M522 94 L522 94 522 82 M516 88 Q 433.68 88, 351.36 87.5 T 186.72 87 M 174.72 87 m -1, 0 a 1,1 0 1,0 2,0 a 1,1 0 1,0 -2,0 M 174.72 87 m -0.5, 0 a 0.5,0.5 0 1,0 1,0 a 0.5,0.5 0 1,0 -1,0  M174.72 87 L174.72 87 186.72 87 M180.72 93 L180.72 93 180.72 81" id="h205748368" class="r"></path></g><g class="hrs"></g><g class="ts"><svg width="169.21" height="275" x="528" y="31" id="h143402966" class="t"><rect height="40" width="169.21" class="th"></rect><text x="13" y="25" class="tht">titanic_passenger_ship</text><rect height="235" width="169.21" class="t-bg"></rect><text x="13" y="61" class="tf pk">passengerId<tspan x="156.21" class="ty">int</tspan></text><path d="M7,14A2,2 0 0,1 5,12A2,2 0 0,1 7,10A2,2 0 0,1 9,12A2,2 0 0,1 7,14M12.65,10C11.83,7.67 9.61,6 7, 6A6, 6 0 0, 0 1, 12A6, 6 0 0, 0 7, 18C9.61, 18 11.83, 16.33 12.65, 14H17V18H21V14H23V10H12.65Z" class="i pk" transform="translate(123.53617187500001, 48) scale(0.65)"></path><text x="13" y="86" class="tf">name<tspan x="156.21" class="ty">varchar</tspan></text><text x="13" y="111" class="tf">survived<tspan x="156.21" class="ty">int</tspan></text><text x="13" y="136" class="tf">pclass<tspan x="156.21" class="ty">int</tspan></text><text x="13" y="161" class="tf">parch<tspan x="156.21" class="ty">int</tspan></text><text x="13" y="186" class="tf">ticket<tspan x="156.21" class="ty">varchar</tspan></text><text x="13" y="211" class="tf">cabin<tspan x="156.21" class="ty">varchar</tspan></text><text x="13" y="236" class="tf">embarked<tspan x="156.21" class="ty">varchar</tspan></text><text x="13" y="261" class="tf">fare<tspan x="156.21" class="ty">int</tspan></text></svg><svg width="144.72" height="175" x="30" y="30" id="h2763209374" class="t"><rect height="40" width="144.72" class="th"></rect><text x="13" y="25" class="tht">titanic_passenger</text><rect height="135" width="144.72" class="t-bg"></rect><text x="13" y="61" class="tf pk">passengerId<tspan x="131.72" class="ty">int</tspan></text><path d="M7,14A2,2 0 0,1 5,12A2,2 0 0,1 7,10A2,2 0 0,1 9,12A2,2 0 0,1 7,14M12.65,10C11.83,7.67 9.61,6 7, 6A6, 6 0 0, 0 1, 12A6, 6 0 0, 0 7, 18C9.61, 18 11.83, 16.33 12.65, 14H17V18H21V14H23V10H12.65Z" class="i pk" transform="translate(99.046171875, 48) scale(0.65)"></path><text x="13" y="86" class="tf">name<tspan x="131.72" class="ty">varchar</tspan></text><text x="13" y="111" class="tf">sex<tspan x="131.72" class="ty">varchar</tspan></text><text x="13" y="136" class="tf">age<tspan x="131.72" class="ty">int</tspan></text><text x="13" y="161" class="tf">sibsp<tspan x="131.72" class="ty">int</tspan></text></svg></g></g><text class="qdbd-link" x="10" y="20">www.quickdatabasediagrams.com</text></svg>